<?xml version="1.0" encoding="UTF-8" standalone="no"?>
<!DOCTYPE svg PUBLIC "-//W3C//DTD SVG 1.1//EN" "http://www.w3.org/Graphics/SVG/1.1/DTD/svg11.dtd">
<svg xmlns="http://www.w3.org/2000/svg" version="1.1" viewBox="0.00 0.00 400.00 400.00">
<g fill="#e8a824">
<path d="
  M 389.16 245.87
  Q 389.23 273.05 389.44 298.75
  Q 389.48 303.80 388.32 306.90
  C 386.70 311.21 382.90 314.50 379.39 317.05
  A 2.04 2.02 83.4 0 0 378.70 317.93
  Q 378.27 318.99 378.34 320.21
  Q 378.46 319.29 378.28 318.71
  A 0.54 0.54 0.0 0 0 377.49 318.40
  C 363.36 326.54 347.62 331.20 331.35 334.80
  Q 305.54 340.53 277.13 343.36
  Q 201.11 350.95 126.19 343.49
  C 102.10 341.09 79.30 337.43 56.55 331.44
  Q 43.60 328.02 30.44 321.69
  Q 26.44 319.76 22.27 317.61
  Q 21.98 317.39 21.58 316.88
  Q 21.23 316.43 20.85 316.19
  C 16.28 313.30 11.77 308.11 11.76 302.38
  Q 11.71 274.59 11.61 245.46
  Q 16.91 252.87 23.56 257.18
  Q 31.21 262.13 38.04 264.74
  C 62.28 274.03 88.21 279.05 113.63 282.34
  C 151.41 287.23 190.36 288.39 227.86 287.09
  C 268.63 285.69 308.96 281.55 346.74 270.48
  Q 359.35 266.78 370.78 261.03
  Q 377.15 257.82 381.40 254.41
  Q 384.59 251.85 389.16 245.87
  Z"
/>
<path d="
  M 378.26 333.25
  L 378.18 400.00
  L 22.48 400.00
  L 22.53 330.85
  Q 33.52 333.51 44.39 336.08
  C 79.50 344.41 115.69 349.20 151.74 351.46
  C 200.45 354.52 248.59 354.09 297.21 348.93
  Q 306.04 347.99 327.01 344.65
  Q 352.75 340.54 378.26 333.25
  Z"
/>
</g>
<path fill="#cce08b" d="
  M 400.00 0.00
  L 400.00 400.00
  L 378.18 400.00
  L 378.26 333.25
  L 378.34 320.21
  Q 378.27 318.99 378.70 317.93
  A 2.04 2.02 83.4 0 1 379.39 317.05
  C 382.90 314.50 386.70 311.21 388.32 306.90
  Q 389.48 303.80 389.44 298.75
  Q 389.23 273.05 389.16 245.87
  Q 390.77 236.40 383.28 229.48
  Q 376.12 222.85 366.38 218.69
  Q 347.44 210.59 326.93 206.47
  Q 329.25 175.18 322.40 143.50
  Q 322.24 142.77 322.90 141.31
  Q 327.31 130.99 327.38 121.74
  Q 327.46 112.12 319.75 105.34
  Q 319.76 104.84 319.71 103.93
  Q 318.92 89.28 313.54 75.32
  Q 311.52 71.37 307.52 69.19
  Q 294.44 62.09 279.47 63.97
  Q 277.35 64.23 275.44 66.14
  Q 272.33 65.55 268.90 67.67
  Q 261.22 72.43 256.02 77.01
  A 1.07 0.71 -67.8 0 1 255.77 77.18
  L 252.02 79.00
  Q 243.61 77.31 234.80 75.72
  Q 223.31 73.64 212.95 74.22
  C 195.84 75.18 177.53 78.48 160.56 84.55
  Q 158.12 85.42 156.35 86.27
  L 143.72 91.92
  Q 132.55 88.09 121.72 85.13
  Q 110.33 82.01 105.01 82.49
  C 91.98 83.68 79.48 95.02 77.74 108.50
  C 75.29 127.55 83.71 142.82 98.92 153.73
  Q 90.17 178.74 84.79 204.15
  Q 76.41 205.22 72.37 206.34
  Q 60.80 209.56 49.30 212.91
  Q 34.15 217.31 21.23 226.17
  Q 10.27 233.69 11.61 245.46
  Q 11.71 274.59 11.76 302.38
  C 11.77 308.11 16.28 313.30 20.85 316.19
  Q 21.23 316.43 21.58 316.88
  Q 21.98 317.39 22.27 317.61
  L 22.53 330.85
  L 22.48 400.00
  L 0.00 400.00
  L 0.00 0.00
  L 400.00 0.00
  Z"
/>
<path fill="#231f20" d="
  M 313.54 75.32
  Q 310.92 86.31 301.89 89.43
  C 293.33 92.37 283.35 84.13 279.24 77.54
  C 276.47 73.09 274.46 70.61 275.44 66.14
  Q 277.35 64.23 279.47 63.97
  Q 294.44 62.09 307.52 69.19
  Q 311.52 71.37 313.54 75.32
  Z"
/>
<path fill="#d48c37" d="
  M 252.02 79.00
  Q 252.66 78.86 252.25 79.76
  Q 252.01 80.31 251.59 80.64
  Q 246.17 84.93 243.62 90.05
  Q 242.35 92.60 240.65 101.64
  C 237.85 116.54 235.92 128.88 237.04 143.00
  Q 237.43 147.86 240.35 161.24
  Q 243.08 173.79 245.10 186.43
  Q 244.69 186.05 244.58 185.78
  A 0.39 0.38 34.0 0 0 243.84 185.92
  Q 243.74 198.36 245.97 211.95
  C 248.42 226.88 255.66 237.92 271.20 239.53
  C 283.97 240.86 298.17 236.50 297.23 221.02
  Q 301.10 218.07 302.17 214.36
  C 303.74 208.87 302.67 199.37 301.39 194.08
  Q 296.77 175.01 295.68 169.07
  C 294.29 161.53 299.58 155.03 304.82 148.81
  Q 312.73 139.43 316.42 124.56
  Q 319.38 132.57 321.78 140.79
  Q 321.91 141.24 322.19 141.30
  Q 322.46 141.37 322.90 141.31
  Q 322.24 142.77 322.40 143.50
  Q 329.25 175.18 326.93 206.47
  C 326.74 209.41 325.98 215.63 327.19 217.65
  Q 327.08 217.63 326.92 217.62
  A 0.17 0.17 0.0 0 0 326.74 217.79
  Q 326.92 239.60 330.59 261.19
  Q 320.19 264.34 308.48 266.52
  Q 296.31 268.78 284.01 270.27
  Q 226.95 277.18 169.56 274.52
  Q 168.16 271.15 166.90 270.04
  Q 143.25 249.38 129.16 222.60
  C 119.47 204.18 114.98 183.88 117.21 162.69
  Q 119.39 141.94 126.82 124.82
  C 132.37 112.06 140.35 101.40 151.12 92.28
  Q 154.10 89.76 156.35 86.27
  Q 158.12 85.42 160.56 84.55
  C 177.53 78.48 195.84 75.18 212.95 74.22
  Q 223.31 73.64 234.80 75.72
  Q 243.61 77.31 252.02 79.00
  Z"
/>
<path fill="#ffd04d" d="
  M 84.79 204.15
  L 82.53 215.14
  Q 71.83 217.51 60.02 221.52
  C 52.29 224.15 30.01 233.42 38.96 245.08
  Q 41.67 248.62 44.44 250.36
  Q 54.87 256.91 68.91 260.68
  Q 78.90 263.71 89.73 265.76
  Q 129.22 273.27 169.56 274.52
  Q 226.95 277.18 284.01 270.27
  Q 296.31 268.78 308.48 266.52
  Q 320.19 264.34 330.59 261.19
  Q 343.64 257.82 354.42 251.67
  C 361.72 247.49 368.42 239.62 359.88 232.12
  C 351.30 224.59 338.21 220.15 327.19 217.65
  C 325.98 215.63 326.74 209.41 326.93 206.47
  Q 347.44 210.59 366.38 218.69
  Q 376.12 222.85 383.28 229.48
  Q 390.77 236.40 389.16 245.87
  Q 384.59 251.85 381.40 254.41
  Q 377.15 257.82 370.78 261.03
  Q 359.35 266.78 346.74 270.48
  C 308.96 281.55 268.63 285.69 227.86 287.09
  C 190.36 288.39 151.41 287.23 113.63 282.34
  C 88.21 279.05 62.28 274.03 38.04 264.74
  Q 31.21 262.13 23.56 257.18
  Q 16.91 252.87 11.61 245.46
  Q 10.27 233.69 21.23 226.17
  Q 34.15 217.31 49.30 212.91
  Q 60.80 209.56 72.37 206.34
  Q 76.41 205.22 84.79 204.15
  Z"
/>
<g fill="#5c401a">
<path d="
  M 82.53 215.14
  Q 80.78 229.21 77.00 240.71
  Q 74.17 249.31 68.91 260.68
  Q 54.87 256.91 44.44 250.36
  Q 41.67 248.62 38.96 245.08
  C 30.01 233.42 52.29 224.15 60.02 221.52
  Q 71.83 217.51 82.53 215.14
  Z"
/>
<path d="
  M 327.19 217.65
  C 338.21 220.15 351.30 224.59 359.88 232.12
  C 368.42 239.62 361.72 247.49 354.42 251.67
  Q 343.64 257.82 330.59 261.19
  Q 326.92 239.60 326.74 217.79
  A 0.17 0.17 0.0 0 1 326.92 217.62
  Q 327.08 217.63 327.19 217.65
  Z"
/>
</g>
<path fill="#fdcb84" d="
  M 275.44 66.14
  C 274.46 70.61 276.47 73.09 279.24 77.54
  C 283.35 84.13 293.33 92.37 301.89 89.43
  Q 310.92 86.31 313.54 75.32
  Q 318.92 89.28 319.71 103.93
  Q 319.76 104.84 319.75 105.34
  L 316.42 124.56
  Q 312.73 139.43 304.82 148.81
  C 299.58 155.03 294.29 161.53 295.68 169.07
  Q 296.77 175.01 301.39 194.08
  C 302.67 199.37 303.74 208.87 302.17 214.36
  Q 301.10 218.07 297.23 221.02
  Q 287.83 226.28 276.24 225.67
  C 264.66 225.05 255.82 220.56 251.26 209.47
  Q 246.72 198.41 245.10 186.43
  Q 243.08 173.79 240.35 161.24
  Q 237.43 147.86 237.04 143.00
  C 235.92 128.88 237.85 116.54 240.65 101.64
  Q 242.35 92.60 243.62 90.05
  Q 246.17 84.93 251.59 80.64
  Q 252.01 80.31 252.25 79.76
  Q 252.66 78.86 252.02 79.00
  L 255.77 77.18
  A 1.07 0.71 -67.8 0 0 256.02 77.01
  Q 261.22 72.43 268.90 67.67
  Q 272.33 65.55 275.44 66.14
  Z"
/>
<g fill="#c3822e">
<path d="
  M 156.35 86.27
  Q 154.10 89.76 151.12 92.28
  C 140.35 101.40 132.37 112.06 126.82 124.82
  Q 119.39 141.94 117.21 162.69
  C 114.98 183.88 119.47 204.18 129.16 222.60
  Q 143.25 249.38 166.90 270.04
  Q 168.16 271.15 169.56 274.52
  Q 129.22 273.27 89.73 265.76
  Q 78.90 263.71 68.91 260.68
  Q 74.17 249.31 77.00 240.71
  Q 80.78 229.21 82.53 215.14
  L 84.79 204.15
  Q 90.17 178.74 98.92 153.73
  Q 101.95 144.93 103.85 140.36
  C 110.23 125.03 119.46 110.96 132.86 100.62
  Q 139.74 95.31 143.72 91.92
  L 156.35 86.27
  Z"
/>
<path d="
  M 245.10 186.43
  Q 246.72 198.41 251.26 209.47
  C 255.82 220.56 264.66 225.05 276.24 225.67
  Q 287.83 226.28 297.23 221.02
  C 298.17 236.50 283.97 240.86 271.20 239.53
  C 255.66 237.92 248.42 226.88 245.97 211.95
  Q 243.74 198.36 243.84 185.92
  A 0.39 0.38 34.0 0 1 244.58 185.78
  Q 244.69 186.05 245.10 186.43
  Z"
/>
</g>
<path fill="#cf9426" d="
  M 378.34 320.21
  L 378.26 333.25
  Q 352.75 340.54 327.01 344.65
  Q 306.04 347.99 297.21 348.93
  C 248.59 354.09 200.45 354.52 151.74 351.46
  C 115.69 349.20 79.50 344.41 44.39 336.08
  Q 33.52 333.51 22.53 330.85
  L 22.27 317.61
  Q 26.44 319.76 30.44 321.69
  Q 43.60 328.02 56.55 331.44
  C 79.30 337.43 102.10 341.09 126.19 343.49
  Q 201.11 350.95 277.13 343.36
  Q 305.54 340.53 331.35 334.80
  C 347.62 331.20 363.36 326.54 377.49 318.40
  A 0.54 0.54 0.0 0 1 378.28 318.71
  Q 378.46 319.29 378.34 320.21
  Z"
/>
<g fill="#b2762d">
<path d="
  M 143.72 91.92
  Q 139.74 95.31 132.86 100.62
  C 119.46 110.96 110.23 125.03 103.85 140.36
  Q 101.95 144.93 98.92 153.73
  C 83.71 142.82 75.29 127.55 77.74 108.50
  C 79.48 95.02 91.98 83.68 105.01 82.49
  Q 110.33 82.01 121.72 85.13
  Q 132.55 88.09 143.72 91.92
  Z"
/>
<path d="
  M 322.90 141.31
  Q 322.46 141.37 322.19 141.30
  Q 321.91 141.24 321.78 140.79
  Q 319.38 132.57 316.42 124.56
  L 319.75 105.34
  Q 327.46 112.12 327.38 121.74
  Q 327.31 130.99 322.90 141.31
  Z"
/>
</g>
<g fill="#231f20">
<path d="
  M 235.39 98.03
  Q 235.88 104.40 230.28 105.56
  Q 221.76 107.32 218.01 101.48
  C 215.50 89.49 233.00 87.32 235.39 98.03
  Z"
/>
<path d="
  M 308.90 131.67
  C 310.74 124.29 309.86 118.98 302.57 115.63
  Q 294.44 111.90 284.00 110.96
  C 276.64 110.29 268.44 111.02 264.01 117.45
  A 2.11 2.08 64.1 0 0 263.64 118.54
  Q 263.06 128.07 265.60 137.16
  A 1.32 1.32 0.0 0 0 267.88 137.65
  Q 269.14 136.15 270.62 132.61
  Q 273.35 126.06 274.13 124.13
  Q 275.50 120.74 279.48 121.17
  Q 287.41 122.04 292.00 123.04
  C 296.46 124.03 301.68 124.63 301.70 129.03
  Q 301.73 137.42 302.35 143.78
  Q 296.25 150.24 291.63 158.38
  Q 288.55 163.81 290.11 169.92
  Q 291.82 176.56 294.39 183.76
  L 290.24 194.41
  A 1.21 1.19 8.1 0 1 289.21 195.17
  L 284.27 195.54
  Q 288.88 185.96 285.49 175.45
  Q 283.98 170.75 281.13 167.56
  C 275.50 161.26 268.23 161.54 258.76 162.47
  Q 256.11 162.73 255.09 164.57
  Q 254.14 166.28 253.48 170.05
  C 252.79 173.98 254.71 176.53 257.34 179.38
  A 1.79 1.77 -72.3 0 1 257.77 180.22
  Q 258.24 182.37 260.50 181.51
  C 259.67 185.32 258.15 197.30 260.63 200.29
  C 262.61 202.69 266.58 204.22 269.42 204.86
  Q 278.92 207.03 288.31 205.47
  Q 295.65 204.25 297.01 196.50
  Q 298.92 203.02 297.50 207.96
  C 295.93 213.45 282.91 215.54 278.70 215.39
  C 268.02 215.01 258.04 211.16 253.66 200.86
  Q 251.52 195.81 250.96 192.27
  C 247.71 171.84 245.58 152.53 252.69 134.44
  Q 254.53 129.77 257.74 122.42
  C 262.22 112.16 267.71 106.34 279.00 106.32
  C 287.61 106.30 304.05 108.61 309.21 116.70
  Q 313.59 123.57 308.90 131.67
  Z"
/>
</g>
<path fill="#620716" d="
  M 284.27 195.54
  L 270.14 194.80
  A 0.86 0.86 0.0 0 1 269.35 194.16
  C 268.04 189.26 266.49 183.45 263.32 179.47
  A 1.10 1.10 0.0 0 0 261.49 179.64
  L 260.50 181.51
  Q 258.24 182.37 257.77 180.22
  A 1.79 1.77 -72.3 0 0 257.34 179.38
  C 254.71 176.53 252.79 173.98 253.48 170.05
  Q 254.14 166.28 255.09 164.57
  Q 256.11 162.73 258.76 162.47
  C 268.23 161.54 275.50 161.26 281.13 167.56
  Q 283.98 170.75 285.49 175.45
  Q 288.88 185.96 284.27 195.54
  Z"
/>
<g fill="#fdeddc">
<path d="
  M 308.90 131.67
  Q 307.65 141.20 302.35 143.78
  Q 301.73 137.42 301.70 129.03
  C 301.68 124.63 296.46 124.03 292.00 123.04
  Q 287.41 122.04 279.48 121.17
  Q 275.50 120.74 274.13 124.13
  Q 273.35 126.06 270.62 132.61
  Q 269.14 136.15 267.88 137.65
  A 1.32 1.32 0.0 0 1 265.60 137.16
  Q 263.06 128.07 263.64 118.54
  A 2.11 2.08 64.1 0 1 264.01 117.45
  C 268.44 111.02 276.64 110.29 284.00 110.96
  Q 294.44 111.90 302.57 115.63
  C 309.86 118.98 310.74 124.29 308.90 131.67
  Z"
/>
<path d="
  M 284.27 195.54
  L 289.21 195.17
  A 1.21 1.19 8.1 0 0 290.24 194.41
  L 294.39 183.76
  Q 294.30 182.07 296.06 182.56
  A 0.86 0.86 0.0 0 1 296.63 183.09
  L 298.11 187.14
  A 0.79 0.71 41.6 0 1 298.15 187.48
  L 297.01 196.50
  Q 295.65 204.25 288.31 205.47
  Q 278.92 207.03 269.42 204.86
  C 266.58 204.22 262.61 202.69 260.63 200.29
  C 258.15 197.30 259.67 185.32 260.50 181.51
  L 261.49 179.64
  A 1.10 1.10 0.0 0 1 263.32 179.47
  C 266.49 183.45 268.04 189.26 269.35 194.16
  A 0.86 0.86 0.0 0 0 270.14 194.80
  L 284.27 195.54
  Z"
/>
</g>
<path fill="#c3822e" d="
  M 235.39 98.03
  C 233.00 87.32 215.50 89.49 218.01 101.48
  L 213.01 99.90
  A 1.17 1.17 0.0 0 1 212.25 98.40
  Q 214.01 93.29 218.84 90.11
  C 225.81 85.52 234.43 88.20 236.97 96.36
  A 0.87 0.85 58.9 0 1 236.77 97.21
  Q 236.27 97.73 235.39 98.03
  Z"
/>
<circle fill="#fdeddc" cx="228.27" cy="95.45" r="1.90"/>
</svg>
